<svg width="240.27745327102807" height="293.825" viewBox="0 0 350.00000000000006 428" class="looka-1j8o68f gb-blur-svg">
  <defs id="SvgjsDefs1175"></defs>
  <g id="SvgjsG1176" featurekey="rootContainer" transform="matrix(1,0,0,1,0,0)" fill="#111111">
    <path xmlns="http://www.w3.org/2000/svg" fill-rule="evenodd"
      d="M5,65 L175,0 L345, 65 L175, 10 z M5,348 L175,428 L345,343 L175, 418 z"></path>
  </g>
  <g id="SvgjsG1177" featurekey="symbolFeature-0"
    transform="matrix(2.916666203075059,0,0,2.916666203075059,105.00001470074545,90)" fill="#111111">
    <title xmlns="http://www.w3.org/2000/svg">9-Control and command</title>
    <g xmlns="http://www.w3.org/2000/svg" data-name="9-Control and command">
      <path
        d="M16.394,16.659A6.8,6.8,0,0,0,12,23v2h2V23a4.794,4.794,0,0,1,3.1-4.468l4.255-1.595A1,1,0,0,0,22,16V14.65a5.889,5.889,0,0,0,4,0V16a1,1,0,0,0,.649.937L30.9,18.532A4.794,4.794,0,0,1,34,23v2h2V23a6.8,6.8,0,0,0-4.394-6.341L28,15.307V13.46A5.983,5.983,0,0,0,30,9V7h1V5H29.91A5.993,5.993,0,0,0,18.09,5H17V7h1V9a5.983,5.983,0,0,0,2,4.46v1.847ZM24,2a4,4,0,0,1,3.858,3H20.142A4,4,0,0,1,24,2ZM23,7v3h2V7h3V9a4,4,0,0,1-8,0V7Z">
      </path>
      <polygon
        points="27.555 20.832 26.445 19.168 24 20.798 21.555 19.168 20.445 20.832 23 22.535 23 33 25 33 25 22.535 27.555 20.832">
      </polygon>
      <path
        d="M18.343,31.847l-5.766-4.164a3.472,3.472,0,0,0-3.9-.173L6,25.5V20.162a5.381,5.381,0,0,0-3.684-5.111A1,1,0,0,0,2,15H1a1,1,0,0,0-1,1V30.945a5.371,5.371,0,0,0,1.938,4.138l6.581,5.485A9.648,9.648,0,0,1,12,48h2a11.641,11.641,0,0,0-4.2-8.969l-6.58-5.484A3.375,3.375,0,0,1,2,30.945V17.072a3.382,3.382,0,0,1,2,3.09V26a1,1,0,0,0,.4.8l2.944,2.208a3.465,3.465,0,0,0,1.133,4.276l4.942,3.53,1.162-1.628L9.64,31.657A1.471,1.471,0,0,1,10.287,29a1.484,1.484,0,0,1,1.1.29l5.781,4.175A6.842,6.842,0,0,1,20,39v9h2V39A8.846,8.846,0,0,0,18.343,31.847Z">
      </path>
      <path
        d="M47,15H46a1,1,0,0,0-.316.051A5.381,5.381,0,0,0,42,20.162V25.5l-2.679,2.009a3.458,3.458,0,0,0-3.883.163l-5.781,4.175A8.846,8.846,0,0,0,26,39v9h2V39a6.842,6.842,0,0,1,2.828-5.532l5.8-4.186a1.471,1.471,0,1,1,1.737,2.374l-4.942,3.53,1.162,1.628,4.942-3.53a3.465,3.465,0,0,0,1.133-4.276L43.6,26.8A1,1,0,0,0,44,26V20.162a3.382,3.382,0,0,1,2-3.09V30.945a3.375,3.375,0,0,1-1.219,2.6L38.2,39.031A11.641,11.641,0,0,0,34,48h2a9.651,9.651,0,0,1,3.481-7.433l6.581-5.484A5.371,5.371,0,0,0,48,30.945V16A1,1,0,0,0,47,15Z">
      </path>
      <path d="M9,12h5V10H10V2h4V0H9A1,1,0,0,0,8,1V11A1,1,0,0,0,9,12Z"></path>
      <path d="M40,11V1a1,1,0,0,0-1-1H34V2h4v8H34v2h5A1,1,0,0,0,40,11Z"></path>
    </g>
  </g>
  <g id="SvgjsG1178" featurekey="nameFeature-0"
    transform="matrix(1.8668656896202316,0,0,1.8668656896202316,-2.2402402518497664,229.46448097494118)" fill="#111111">
    <path
      d="M16.2 40 l-5.92 0 l0 -11.6 l-3.16 0 l0 11.6 l-5.92 0 l0 -29 l5.92 0 l0 12.4 l3.16 0 l0 -12.4 l5.92 0 l0 29 z M23.12 40 c-1.68 0 -2.8533 -0.34668 -3.52 -1.04 s-1 -1.84 -1 -3.44 l0 -24.52 l5.92 0 l0 23.28 c0 0.21332 0.03332 0.37332 0.1 0.48 s0.22 0.16 0.46 0.16 l2.04 0 c0.24 0 0.39332 -0.05332 0.46 -0.16 s0.1 -0.26668 0.1 -0.48 l0 -23.28 l5.92 0 l0 24.52 c0 1.6 -0.33332 2.7467 -1 3.44 s-1.84 1.04 -3.52 1.04 l-5.96 0 z M41.64 26.32 l0 13.68 l-5.64 0 l0 -29 l6.12 0 l3.16 12.24 l3.16 -12.24 l6.16 0 l0 29 l-5.64 0 l0 -13.68 l-3.68 11.6 z M62.56 36.4 l-0.52 3.6 l-5.84 0 l5.24 -29 l6.2 0 l5.24 29 l-5.84 0 l-0.52 -3.6 l-3.96 0 z M63.2 31.8 l2.68 0 l-1.32 -10.28 z M74.48 11 l5.52 0 l2.96 11.64 l0 -11.64 l5.96 0 l0 29 l-5.96 0 l-3.12 -12.12 l0 12.12 l-5.36 0 l0 -29 z M97.76 40 l-1.0399 -5.4 l6.24 0 c0.45332 0 0.68 -0.2 0.68 -0.6 l0 -5.28 c0 -0.4 -0.08 -0.64 -0.24 -0.72 s-0.44 -0.12 -0.84 -0.12 l-3 0 c-0.42668 0 -0.83336 -0.03332 -1.22 -0.1 s-0.73336 -0.22 -1.04 -0.46 s-0.54668 -0.57332 -0.72 -1 s-0.26 -1 -0.26 -1.72 l0 -9.84 c0 -1.1467 0.31332 -2.06 0.94 -2.74 s1.62 -1.02 2.98 -1.02 l8 0 l1 5.4 l-6.56 0 c-0.48 0 -0.72 0.21332 -0.72 0.64 l0 5.28 c0 0.29332 0.07332 0.49332 0.22 0.6 s0.36668 0.16 0.66 0.16 l3.64 0 c0.93332 0 1.6466 0.22 2.14 0.66 s0.74 1.2067 0.74 2.3 l0 9.56 c0 1.6 -0.32668 2.7333 -0.98 3.4 s-1.8066 1 -3.46 1 l-7.16 0 z M116.28 40 c-1.68 0 -2.8533 -0.34668 -3.52 -1.04 s-1 -1.84 -1 -3.44 l0 -24.52 l5.92 0 l0 23.28 c0 0.21332 0.03332 0.37332 0.1 0.48 s0.22 0.16 0.46 0.16 l2.04 0 c0.24 0 0.39332 -0.05332 0.46 -0.16 s0.1 -0.26668 0.1 -0.48 l0 -23.28 l5.92 0 l0 24.52 c0 1.6 -0.33332 2.7467 -1 3.44 s-1.84 1.04 -3.52 1.04 l-5.96 0 z M134.92000000000002 16.08 l0.000039062 7.6 l2.72 0 c0.21332 0 0.38664 -0.06 0.51996 -0.18 s0.2 -0.31332 0.2 -0.58 l0 -6.28 c0 -0.37332 -0.17332 -0.56 -0.52 -0.56 l-2.92 0 z M138.44 28.92 c0 -0.32 -0.08 -0.54004 -0.24 -0.66004 s-0.37332 -0.18 -0.64 -0.18 l-2.64 0 l0 6.84 l2.92 0 c0.24 0 0.4 -0.04668 0.48 -0.14 s0.12 -0.24664 0.12 -0.45996 l0 -5.4 z M143.92000000000002 22.48 c0 0.72 -0.14 1.34 -0.42 1.86 s-0.80668 0.88668 -1.58 1.1 c0.8 0.05332 1.38 0.33332 1.74 0.84 s0.54 1.08 0.54 1.72 l0 7.52 c0 1.6 -0.33332 2.7467 -1 3.44 s-1.84 1.04 -3.52 1.04 l-10.52 0 l0 -29 l11.32 0 c1.1467 0 2.0067 0.32 2.58 0.96 s0.86 1.4933 0.86 2.56 l0 7.96 z M152.24 26.32 l0 13.68 l-5.64 0 l0 -29 l6.12 0 l3.16 12.24 l3.16 -12.24 l6.16 0 l0 29 l-5.64 0 l0 -13.68 l-3.68 11.6 z M167.6 11 l5.8 0 l0 29 l-5.8 0 l0 -29 z M187.24 11 l1.44 5.4 l-3.88 0 l0 23.6 l-5.92 0 l0 -23.6 l-3.88 0 l1.52 -5.4 l10.72 0 z">
    </path>
  </g>
  <g id="SvgjsG1179" featurekey="sloganFeature-0"
    transform="matrix(0.7714687523839562,0,0,0.7714687523839562,19.68850326809326,310.50233796818986)" fill="#111111">
    <path
      d="M9.33 14.7 l2.61 4.95 c0.11 0.21 0.01 0.35 -0.22 0.35 l-1.67 0 c-0.16 0 -0.27 -0.07 -0.35 -0.23 l-2.48 -4.8 l-0.27 0 l-3.01 0 l0 4.73 c0 0.18 -0.12 0.3 -0.3 0.3 l-1.64 0 c-0.18 0 -0.3 -0.12 -0.3 -0.3 l0 -13.4 c0 -0.18 0.12 -0.3 0.3 -0.3 l4.95 0 c3.89 0 5.23 1.57 5.23 4.48 c0 2.22 -0.77 3.66 -2.85 4.22 z M3.94 8.01 l0 4.95 l3.17 0 c1.78 0 2.91 -0.46 2.91 -2.48 c0 -2.01 -1.13 -2.47 -2.91 -2.47 l-3.17 0 z M28.6795 17.990000000000002 c0.18 0 0.3 0.12 0.3 0.3 l0 1.41 c0 0.18 -0.12 0.3 -0.3 0.3 l-8.61 0 c-0.18 0 -0.3 -0.12 -0.3 -0.3 l0 -13.4 c0 -0.18 0.12 -0.3 0.3 -0.3 l8.59 0 c0.18 0 0.3 0.12 0.3 0.3 l0 1.41 c0 0.18 -0.12 0.3 -0.3 0.3 l-6.65 0 l0 3.75 l6.13 0 c0.18 0 0.3 0.12 0.3 0.3 l0 1.41 c0 0.18 -0.12 0.3 -0.3 0.3 l-6.13 0 l0 4.22 l6.67 0 z M48.359 19.66 c0.07 0.2 -0.02 0.34 -0.24 0.34 l-1.69 0 c-0.16 0 -0.28 -0.06 -0.34 -0.24 l-0.89 -2.49 l-6.04 0 l-0.89 2.49 c-0.07 0.18 -0.18 0.24 -0.34 0.24 l-1.69 0 c-0.22 0 -0.31 -0.14 -0.24 -0.34 l5.03 -13.42 c0.06 -0.16 0.19 -0.24 0.35 -0.24 l1.57 0 c0.16 0 0.31 0.08 0.37 0.24 z M39.859 15.33 l4.64 0 l-2.32 -6.47 z M64.5385 17.990000000000002 c0.18 0 0.3 0.12 0.3 0.3 l0 1.41 c0 0.18 -0.12 0.3 -0.3 0.3 l-8.51 0 c-0.18 0 -0.3 -0.12 -0.3 -0.3 l0 -13.4 c0 -0.18 0.12 -0.3 0.3 -0.3 l1.64 0 c0.18 0 0.3 0.12 0.3 0.3 l0 11.69 l6.57 0 z M90.3675 6 c3.89 0 5.23 1.57 5.23 4.48 c0 2.92 -1.34 4.49 -5.23 4.49 l-3.01 0 l0 4.73 c0 0.18 -0.12 0.3 -0.3 0.3 l-1.64 0 c-0.18 0 -0.3 -0.12 -0.3 -0.3 l0 -13.4 c0 -0.18 0.12 -0.3 0.3 -0.3 l4.95 0 z M90.5275 12.96 c1.78 0 2.91 -0.46 2.91 -2.48 c0 -2.01 -1.13 -2.47 -2.91 -2.47 l-3.17 0 l0 4.95 l3.17 0 z M112.04700000000001 17.990000000000002 c0.18 0 0.3 0.12 0.3 0.3 l0 1.41 c0 0.18 -0.12 0.3 -0.3 0.3 l-8.61 0 c-0.18 0 -0.3 -0.12 -0.3 -0.3 l0 -13.4 c0 -0.18 0.12 -0.3 0.3 -0.3 l8.59 0 c0.18 0 0.3 0.12 0.3 0.3 l0 1.41 c0 0.18 -0.12 0.3 -0.3 0.3 l-6.65 0 l0 3.75 l6.13 0 c0.18 0 0.3 0.12 0.3 0.3 l0 1.41 c0 0.18 -0.12 0.3 -0.3 0.3 l-6.13 0 l0 4.22 l6.67 0 z M127.06650000000002 20.26 c-3.96 0 -7.18 -3.2 -7.18 -7.2 c0 -4.02 3.22 -7.22 7.18 -7.22 c3.95 0 7.18 3.2 7.18 7.22 c0 4 -3.23 7.2 -7.18 7.2 z M127.06650000000002 18.12 c2.77 0 4.95 -2.23 4.95 -5.06 c0 -2.85 -2.18 -5.08 -4.95 -5.08 s-4.96 2.23 -4.96 5.08 c0 2.83 2.19 5.06 4.96 5.06 z M147.386 6 c3.89 0 5.23 1.57 5.23 4.48 c0 2.92 -1.34 4.49 -5.23 4.49 l-3.01 0 l0 4.73 c0 0.18 -0.12 0.3 -0.3 0.3 l-1.64 0 c-0.18 0 -0.3 -0.12 -0.3 -0.3 l0 -13.4 c0 -0.18 0.12 -0.3 0.3 -0.3 l4.95 0 z M147.54600000000002 12.96 c1.78 0 2.91 -0.46 2.91 -2.48 c0 -2.01 -1.13 -2.47 -2.91 -2.47 l-3.17 0 l0 4.95 l3.17 0 z M168.9655 17.990000000000002 c0.18 0 0.3 0.12 0.3 0.3 l0 1.41 c0 0.18 -0.12 0.3 -0.3 0.3 l-8.51 0 c-0.18 0 -0.3 -0.12 -0.3 -0.3 l0 -13.4 c0 -0.18 0.12 -0.3 0.3 -0.3 l1.64 0 c0.18 0 0.3 0.12 0.3 0.3 l0 11.69 l6.57 0 z M185.765 17.990000000000002 c0.18 0 0.3 0.12 0.3 0.3 l0 1.41 c0 0.18 -0.12 0.3 -0.3 0.3 l-8.61 0 c-0.18 0 -0.3 -0.12 -0.3 -0.3 l0 -13.4 c0 -0.18 0.12 -0.3 0.3 -0.3 l8.59 0 c0.18 0 0.3 0.12 0.3 0.3 l0 1.41 c0 0.18 -0.12 0.3 -0.3 0.3 l-6.65 0 l0 3.75 l6.13 0 c0.18 0 0.3 0.12 0.3 0.3 l0 1.41 c0 0.18 -0.12 0.3 -0.3 0.3 l-6.13 0 l0 4.22 l6.67 0 z M198.1645 18.18 c0.18 0 0.3 0.12 0.3 0.3 l0 0.66 c0 1.78 -0.37 3.62 -0.76 4.67 c-0.06 0.16 -0.19 0.23 -0.35 0.23 l-0.9 0 c-0.2 0 -0.3 -0.12 -0.26 -0.33 c0.2 -1.03 0.29 -2.74 0.27 -3.71 l-2.61 0 c-0.18 0 -0.3 -0.12 -0.3 -0.3 l0 -1.22 c0 -0.18 0.12 -0.3 0.3 -0.3 l4.31 0 z M226.6235 14.7 l2.61 4.95 c0.11 0.21 0.01 0.35 -0.22 0.35 l-1.67 0 c-0.16 0 -0.27 -0.07 -0.35 -0.23 l-2.48 -4.8 l-0.27 0 l-3.01 0 l0 4.73 c0 0.18 -0.12 0.3 -0.3 0.3 l-1.64 0 c-0.18 0 -0.3 -0.12 -0.3 -0.3 l0 -13.4 c0 -0.18 0.12 -0.3 0.3 -0.3 l4.95 0 c3.89 0 5.23 1.57 5.23 4.48 c0 2.22 -0.77 3.66 -2.85 4.22 z M221.2335 8.01 l0 4.95 l3.17 0 c1.78 0 2.91 -0.46 2.91 -2.48 c0 -2.01 -1.13 -2.47 -2.91 -2.47 l-3.17 0 z M245.973 17.990000000000002 c0.18 0 0.3 0.12 0.3 0.3 l0 1.41 c0 0.18 -0.12 0.3 -0.3 0.3 l-8.61 0 c-0.18 0 -0.3 -0.12 -0.3 -0.3 l0 -13.4 c0 -0.18 0.12 -0.3 0.3 -0.3 l8.59 0 c0.18 0 0.3 0.12 0.3 0.3 l0 1.41 c0 0.18 -0.12 0.3 -0.3 0.3 l-6.65 0 l0 3.75 l6.13 0 c0.18 0 0.3 0.12 0.3 0.3 l0 1.41 c0 0.18 -0.12 0.3 -0.3 0.3 l-6.13 0 l0 4.22 l6.67 0 z M265.6525 19.66 c0.07 0.2 -0.02 0.34 -0.24 0.34 l-1.69 0 c-0.16 0 -0.28 -0.06 -0.34 -0.24 l-0.89 -2.49 l-6.04 0 l-0.89 2.49 c-0.07 0.18 -0.18 0.24 -0.34 0.24 l-1.69 0 c-0.22 0 -0.31 -0.14 -0.24 -0.34 l5.03 -13.42 c0.06 -0.16 0.19 -0.24 0.35 -0.24 l1.57 0 c0.16 0 0.31 0.08 0.37 0.24 z M257.1525 15.33 l4.64 0 l-2.32 -6.47 z M281.832 17.990000000000002 c0.18 0 0.3 0.12 0.3 0.3 l0 1.41 c0 0.18 -0.12 0.3 -0.3 0.3 l-8.51 0 c-0.18 0 -0.3 -0.12 -0.3 -0.3 l0 -13.4 c0 -0.18 0.12 -0.3 0.3 -0.3 l1.64 0 c0.18 0 0.3 0.12 0.3 0.3 l0 11.69 l6.57 0 z M310.041 14.7 l2.61 4.95 c0.11 0.21 0.01 0.35 -0.22 0.35 l-1.67 0 c-0.16 0 -0.27 -0.07 -0.35 -0.23 l-2.48 -4.8 l-0.27 0 l-3.01 0 l0 4.73 c0 0.18 -0.12 0.3 -0.3 0.3 l-1.64 0 c-0.18 0 -0.3 -0.12 -0.3 -0.3 l0 -13.4 c0 -0.18 0.12 -0.3 0.3 -0.3 l4.95 0 c3.89 0 5.23 1.57 5.23 4.48 c0 2.22 -0.77 3.66 -2.85 4.22 z M304.651 8.01 l0 4.95 l3.17 0 c1.78 0 2.91 -0.46 2.91 -2.48 c0 -2.01 -1.13 -2.47 -2.91 -2.47 l-3.17 0 z M329.39050000000003 17.990000000000002 c0.18 0 0.3 0.12 0.3 0.3 l0 1.41 c0 0.18 -0.12 0.3 -0.3 0.3 l-8.61 0 c-0.18 0 -0.3 -0.12 -0.3 -0.3 l0 -13.4 c0 -0.18 0.12 -0.3 0.3 -0.3 l8.59 0 c0.18 0 0.3 0.12 0.3 0.3 l0 1.41 c0 0.18 -0.12 0.3 -0.3 0.3 l-6.65 0 l0 3.75 l6.13 0 c0.18 0 0.3 0.12 0.3 0.3 l0 1.41 c0 0.18 -0.12 0.3 -0.3 0.3 l-6.13 0 l0 4.22 l6.67 0 z M342.05 11.88 c2.7 0.54 5.27 1.38 5.27 4.37 c0 2.56 -1.67 4.05 -5.2 4.05 c-3.11 0 -4.87 -1.12 -5.09 -3.55 c-0.02 -0.2 0.1 -0.36 0.28 -0.36 l1.54 0 c0.18 0 0.27 0.14 0.3 0.3 c0.2 0.99 1.22 1.58 2.97 1.58 c1.91 0 3 -0.62 3 -1.97 c0 -1.54 -0.98 -1.96 -3.07 -2.42 c-2.52 -0.56 -4.73 -1.48 -4.73 -4.21 c0 -2.35 1.54 -3.84 4.69 -3.84 c2.88 0 4.64 1.09 4.88 3.47 c0.02 0.2 -0.1 0.32 -0.28 0.32 l-1.43 0 c-0.18 0 -0.27 -0.1 -0.3 -0.26 c-0.16 -0.9 -1.14 -1.53 -2.85 -1.53 c-1.58 0 -2.54 0.65 -2.54 1.84 c0 1.15 0.65 1.82 2.56 2.21 z M365.8395 6 c0.18 0 0.3 0.12 0.3 0.3 l0 8.03 c0 4.02 -2.24 5.96 -5.74 5.96 c-3.49 0 -5.74 -1.94 -5.74 -5.96 l0 -8.03 c0 -0.18 0.12 -0.3 0.3 -0.3 l1.64 0 c0.18 0 0.3 0.12 0.3 0.3 l0 8.03 c0 2.55 1.37 3.83 3.5 3.83 c2.14 0 3.49 -1.28 3.49 -3.83 l0 -8.03 c0 -0.18 0.12 -0.3 0.3 -0.3 l1.65 0 z M382.889 17.990000000000002 c0.18 0 0.3 0.12 0.3 0.3 l0 1.41 c0 0.18 -0.12 0.3 -0.3 0.3 l-8.51 0 c-0.18 0 -0.3 -0.12 -0.3 -0.3 l0 -13.4 c0 -0.18 0.12 -0.3 0.3 -0.3 l1.64 0 c0.18 0 0.3 0.12 0.3 0.3 l0 11.69 l6.57 0 z M400.6385 6 c0.18 0 0.3 0.12 0.3 0.3 l0 1.41 c0 0.18 -0.12 0.3 -0.3 0.3 l-4.03 0 l0 11.69 c0 0.18 -0.12 0.3 -0.3 0.3 l-1.65 0 c-0.18 0 -0.3 -0.12 -0.3 -0.3 l0 -11.69 l-4.03 0 c-0.18 0 -0.3 -0.12 -0.3 -0.3 l0 -1.41 c0 -0.18 0.12 -0.3 0.3 -0.3 l10.31 0 z">
    </path>
  </g>
</svg>